# xmcd CD database file
#
# Track frame offsets:
#	150
#	30547
#	68545
#	100487
#	130390
#	164170
#	203607
#
# Disc length: 2866 seconds
#
# Revision: 0
# Processed by: cddbd v1.4PL0 Copyright (c) Steve Scherf et al.
# Submitted via: CDex 1.50beta10
#
DISCID=5e0b3007
DTITLE=Johannes Barthelmes and Uli Lenz - Trane's Tree
DYEAR=1993
DGENRE=Jazz
TTITLE0=Anita
TTITLE1=Steam
TTITLE2=Love Channel
TTITLE3=At Leat
TTITLE4=Naima
TTITLE5=Trane's Tree
TTITLE6=Passive Tolerance
EXTD=YEAR: 1993
EXTT0=
EXTT1=
EXTT2=
EXTT3=
EXTT4=
EXTT5=
EXTT6=
PLAYORDER=
